HIERARCHY
ROOT Hips
{
	OFFSET -0.001795 -0.223333 0.028219
	CHANNELS 6 Xposition Yposition Zposition Zrotation Yrotation Xrotation 
	JOINT LeftUpLeg
	{
		OFFSET 0.069520 -0.091406 -0.006815
		CHANNELS 3 Zrotation Yrotation Xrotation
		JOINT LeftLeg
		{
			OFFSET 0.034277 -0.375199 -0.004496
			CHANNELS 3 Zrotation Yrotation Xrotation
			JOINT LeftFoot
			{
				OFFSET -0.013596 -0.397961 -0.043693
				CHANNELS 3 Zrotation Yrotation Xrotation
				JOINT LeftToe
				{
					OFFSET 0.026358 -0.055791 0.119288
					CHANNELS 3 Zrotation Yrotation Xrotation
					End Site
					{
						OFFSET 0.000000 0.000000 0.000000
					}
				}
			}
		}
	}
	JOINT RightUpLeg
	{
		OFFSET -0.067670 -0.090522 -0.004320
		CHANNELS 3 Zrotation Yrotation Xrotation
		JOINT RightLeg
		{
			OFFSET -0.038290 -0.382569 -0.008850
			CHANNELS 3 Zrotation Yrotation Xrotation
			JOINT RightFoot
			{
				OFFSET 0.015774 -0.398415 -0.042312
				CHANNELS 3 Zrotation Yrotation Xrotation
				JOINT RightToe
				{
					OFFSET -0.025372 -0.048144 0.123348
					CHANNELS 3 Zrotation Yrotation Xrotation
					End Site
					{
						OFFSET 0.000000 0.000000 0.000000
					}
				}
			}
		}
	}
	JOINT Spine
	{
		OFFSET -0.002533 0.108963 -0.026696
		CHANNELS 3 Zrotation Yrotation Xrotation
		JOINT Spine1
		{
			OFFSET 0.005487 0.135180 0.001092
			CHANNELS 3 Zrotation Yrotation Xrotation
			JOINT Spine2
			{
				OFFSET 0.001457 0.052922 0.025425
				CHANNELS 3 Zrotation Yrotation Xrotation
				JOINT Neck
				{
					OFFSET -0.002778 0.213870 -0.042857
					CHANNELS 3 Zrotation Yrotation Xrotation
					JOINT Head
					{
						OFFSET 0.005152 0.064970 0.051349
						CHANNELS 3 Zrotation Yrotation Xrotation
						End Site
						{
							OFFSET 0.000000 0.000000 0.000000
						}
					}
				}
				JOINT LeftShoulder
				{
					OFFSET 0.078845 0.121749 -0.034090
					CHANNELS 3 Zrotation Yrotation Xrotation
					JOINT LeftArm
					{
						OFFSET 0.090977 0.030469 -0.008868
						CHANNELS 3 Zrotation Yrotation Xrotation
						JOINT LeftForeArm
						{
							OFFSET 0.259612 -0.012772 -0.027456
							CHANNELS 3 Zrotation Yrotation Xrotation
							JOINT LeftHand
							{
								OFFSET 0.249234 0.008986 -0.001171
								CHANNELS 3 Zrotation Yrotation Xrotation
								End Site
								{
									OFFSET 0.000000 0.000000 0.000000
								}
							}
						}
					}
				}
				JOINT RightShoulder
				{
					OFFSET -0.081759 0.118833 -0.038615
					CHANNELS 3 Zrotation Yrotation Xrotation
					JOINT RightArm
					{
						OFFSET -0.096012 0.032551 -0.009143
						CHANNELS 3 Zrotation Yrotation Xrotation
						JOINT RightForeArm
						{
							OFFSET -0.253742 -0.013329 -0.021401
							CHANNELS 3 Zrotation Yrotation Xrotation
							JOINT RightHand
							{
								OFFSET -0.255298 0.007772 -0.005559
								CHANNELS 3 Zrotation Yrotation Xrotation
								End Site
								{
									OFFSET 0.000000 0.000000 0.000000
								}
							}
						}
					}
				}
			}
		}
	}
}
MOTION
Frames: 17
Frame Time: 0.050000
-0.209060 0.825650 1.002547 3.204818 -13.185921 5.942510 2.033326 -0.726710 -52.021027 0.852276 1.499092 79.110147 5.807443 11.593139 -1.360342 0.000000 0.000000 0.000000 -2.220393 -0.047579 2.918501 4.392338 1.653200 37.959350 -8.455853 -14.447138 -19.883955 0.000000 0.000000 0.000000 -5.693019 0.882800 19.327565 6.110874 -1.310979 -20.307111 5.614050 13.022418 28.515671 -1.054476 3.473032 -35.612683 0.000000 0.000000 0.000000 -29.045421 9.021002 -10.286508 -37.101893 14.529062 -9.344828 -57.036206 -47.832783 28.758966 0.000000 0.000000 0.000000 17.517443 10.139384 5.814657 41.103581 24.487214 1.470658 -11.009722 64.644771 -1.741527 0.000000 0.000000 0.000000 
-0.232577 0.842400 1.131211 5.888306 -12.874677 5.972379 2.154054 -0.527782 -57.549274 -5.735199 4.822664 57.554208 5.810082 11.602762 -0.784664 0.000000 0.000000 0.000000 -4.515468 -0.113902 17.493174 1.715416 1.012405 22.047758 -4.567052 -7.954612 -5.737710 0.000000 0.000000 0.000000 -9.691847 1.425874 15.006698 4.425217 -0.981240 -18.699123 8.044912 18.196737 27.524847 -1.306239 4.327463 -32.130760 0.000000 0.000000 0.000000 -24.799352 12.310077 -12.934526 -32.159768 22.311353 -9.364908 -64.414587 -43.327831 27.938112 0.000000 0.000000 0.000000 12.869522 7.262516 4.697338 45.546181 26.129535 3.184297 -20.825198 79.362753 -7.738366 0.000000 0.000000 0.000000 
-0.259009 0.855829 1.269002 7.107798 -10.664602 7.274909 1.656883 -1.570551 -53.175853 -9.023132 4.565151 40.171890 4.843042 10.330281 2.786877 0.000000 0.000000 0.000000 -3.165093 -0.646138 22.612155 -1.950712 1.760428 20.336745 2.253353 -3.260277 15.316502 0.000000 0.000000 0.000000 -12.766180 1.696281 12.002698 2.266749 -0.282262 -19.583761 10.949998 18.307856 25.989805 -0.904179 4.237408 -31.542661 0.000000 0.000000 0.000000 -21.844291 14.081308 -13.245838 -31.883490 27.520763 -10.505441 -65.675167 -44.591375 29.014107 0.000000 0.000000 0.000000 11.444531 4.621623 3.401171 49.038362 20.248709 1.615671 103.069775 85.197559 111.108942 0.000000 0.000000 0.000000 
-0.285907 0.852337 1.403412 6.973417 -8.069381 6.746828 -1.978878 -3.623049 -46.070934 -7.055620 3.493230 42.153269 5.065502 9.119855 -7.247947 0.000000 0.000000 0.000000 -3.320530 -0.801298 21.836989 2.165155 1.307127 32.821969 -0.914066 -10.289200 23.292062 0.000000 0.000000 0.000000 -14.967859 1.765422 10.482690 4.407182 -0.885699 -18.488958 8.888629 16.360876 25.862643 0.208934 3.703211 -33.044874 0.000000 0.000000 0.000000 -22.291963 14.259827 -13.399440 -38.630760 25.370464 -12.546197 -58.840109 -47.766404 27.873825 0.000000 0.000000 0.000000 10.239953 4.843455 3.304852 53.282966 18.070691 1.209890 85.534531 79.881004 88.017258 0.000000 0.000000 0.000000 
-0.313478 0.838147 1.526715 6.811609 -8.573549 5.548406 -4.058823 -3.816880 -38.345371 -5.354905 3.221049 46.625386 7.686119 14.637119 -19.244264 0.000000 0.000000 0.000000 -6.986948 0.170645 13.772283 9.205267 -1.100554 52.031547 -6.002961 -16.466296 14.548181 0.000000 0.000000 0.000000 -15.857506 2.138103 12.766085 4.964621 -1.057350 -18.552543 6.379870 14.119578 26.238501 1.820937 2.778670 -37.664191 0.000000 0.000000 0.000000 -26.417257 10.073368 -11.683196 -44.122231 14.011320 -10.690181 -43.345919 -55.090512 24.519807 0.000000 0.000000 0.000000 10.817137 4.127598 2.702566 56.213100 16.702536 0.660783 51.382221 74.688569 49.942855 0.000000 0.000000 0.000000 
-0.343601 0.828130 1.645800 5.238778 -10.186800 6.143923 -5.661883 -3.230370 -27.964287 -0.126838 0.597948 44.416779 7.921518 15.945409 -33.049884 0.000000 0.000000 0.000000 -8.209215 0.559688 -1.115584 15.821284 -5.233429 69.081835 -10.785223 -24.408547 13.397107 0.000000 0.000000 0.000000 -13.193709 1.781677 12.965501 4.475057 -1.036513 -17.396433 3.044999 8.419085 26.131071 1.346764 2.069779 -39.121150 0.000000 0.000000 0.000000 -24.829539 9.057201 -8.268181 -47.986137 1.726181 -7.960656 -26.109298 -60.552358 18.764597 0.000000 0.000000 0.000000 12.241474 7.795754 3.562701 56.090136 16.568098 0.152447 25.113194 71.096919 23.978500 0.000000 0.000000 0.000000 
-0.379181 0.841638 1.776158 2.774813 -12.201643 6.590594 -5.040300 -2.014059 -17.214773 2.119436 -0.133574 42.751968 8.691878 21.814421 -28.651472 0.000000 0.000000 0.000000 -6.194225 1.080181 -12.811795 19.670012 -7.913122 74.750211 -14.114597 -30.498246 11.687655 0.000000 0.000000 0.000000 -9.106143 1.070531 12.103777 5.704763 -1.117543 -20.979587 0.821048 6.626239 29.496904 2.134626 1.151098 -38.127399 0.000000 0.000000 0.000000 -23.003619 7.414332 -5.696725 -46.033361 -6.743390 -5.411739 -16.485454 -63.346200 14.951585 0.000000 0.000000 0.000000 14.198547 8.685143 3.582583 51.923494 15.463032 -1.128805 23.219163 70.433668 21.270237 0.000000 0.000000 0.000000 
-0.419523 0.873317 1.923503 0.071162 -16.646216 4.199969 -2.497482 -1.365105 -13.849290 1.271288 1.833324 47.800413 9.920682 22.130370 -9.234630 0.000000 0.000000 0.000000 -4.171339 1.118610 -11.990456 18.387066 -4.045357 67.548253 -13.516481 -31.137649 4.208487 0.000000 0.000000 0.000000 -4.946630 0.397219 11.632224 6.273760 -1.173584 -22.718900 0.604210 7.874043 30.787176 -0.248390 1.645174 -29.907167 0.000000 0.000000 0.000000 -19.846953 8.353126 -5.248184 -44.987345 -4.325423 -6.344283 -21.398152 -65.168892 19.163700 0.000000 0.000000 0.000000 11.798962 11.423667 4.446303 51.158498 17.678095 -0.370865 17.233701 68.091227 15.579999 0.000000 0.000000 0.000000 
-0.463583 0.901167 2.076897 -0.569346 -19.030054 3.160545 -0.262671 -1.325218 -23.766934 0.197830 3.978878 55.428752 7.082229 14.388827 -5.859356 0.000000 0.000000 0.000000 -2.764369 0.606551 -5.953296 12.609923 0.373848 55.205304 -12.418036 -28.810407 -1.619700 0.000000 0.000000 0.000000 -4.516603 0.259274 9.309241 6.922026 -1.838094 -18.478290 2.120020 12.210415 27.081307 -0.402173 2.142856 -25.356801 0.000000 0.000000 0.000000 -17.543768 9.165619 -6.160221 -42.496859 -0.401233 -6.753562 -32.845876 -60.853835 23.431675 0.000000 0.000000 0.000000 8.628324 12.305490 4.998515 49.746873 19.340229 0.747968 13.196523 65.615170 12.662799 0.000000 0.000000 0.000000 
-0.511127 0.911488 2.230145 0.582243 -20.174944 -0.249233 1.779221 -0.621690 -29.526461 -5.897881 6.940814 48.195940 8.110058 17.066722 -14.746875 0.000000 0.000000 0.000000 -2.548100 0.338531 -2.643085 8.577148 2.893526 53.101813 -10.553042 -23.956112 -5.384179 0.000000 0.000000 0.000000 -7.439947 0.647712 10.632518 6.802809 -1.809256 -19.304239 4.696720 14.386353 28.933815 -2.314654 3.521111 -23.414375 0.000000 0.000000 0.000000 -20.100697 9.436902 -7.090781 -38.395761 0.486243 -6.370110 -39.191029 -65.525046 29.365987 0.000000 0.000000 0.000000 9.762533 10.307542 4.403228 49.433326 17.399292 -0.294359 15.472918 66.713787 15.038314 0.000000 0.000000 0.000000 
-0.561517 0.895240 2.384263 1.225953 -17.067890 -2.717454 1.742998 -0.825570 -32.565826 -7.666070 4.744801 34.992343 7.901757 16.550188 -12.109271 0.000000 0.000000 0.000000 -3.366711 0.472172 -4.525502 10.806908 1.580564 60.685677 -9.593553 -22.610781 -2.699963 0.000000 0.000000 0.000000 -10.108161 0.972524 11.563613 8.216038 -2.224637 -18.642788 4.684637 13.677767 29.258133 -2.802435 3.999697 -27.825418 0.000000 0.000000 0.000000 -18.724535 8.415408 -6.459603 -41.232265 -2.561148 -5.850141 -33.236990 -70.255008 27.408937 0.000000 0.000000 0.000000 11.363754 8.341558 3.795032 51.346840 12.938836 -2.119624 24.073316 64.275571 20.284976 0.000000 0.000000 0.000000 
-0.612107 0.865205 2.538234 0.909155 -12.237540 -9.709139 2.249515 -1.112455 -25.518663 -6.327315 3.846173 38.660510 5.048461 8.406906 -12.751011 0.000000 0.000000 0.000000 -7.176236 0.598509 -9.408882 16.796775 -4.458937 71.859158 -11.447378 -27.567732 -1.585431 0.000000 0.000000 0.000000 -11.112952 1.105704 15.736008 9.737727 -2.900362 -17.312040 1.755813 9.331540 29.735722 0.072872 2.087500 -27.593503 0.000000 0.000000 0.000000 -21.783434 7.378992 -5.832290 -38.660449 -12.307340 -2.986764 -14.906356 -70.900032 14.821521 0.000000 0.000000 0.000000 14.544836 7.408017 3.214538 51.089344 6.526623 -5.005424 23.470611 56.290482 16.338366 0.000000 0.000000 0.000000 
-0.659886 0.845085 2.683156 -0.986946 -8.491315 -13.800800 2.244461 -0.957258 -16.525366 -3.215003 2.174718 49.122680 6.256502 8.573107 -22.754552 0.000000 0.000000 0.000000 -9.684368 0.686070 -20.135872 17.821779 -7.342998 71.567631 -12.671982 -31.851318 -7.597837 0.000000 0.000000 0.000000 -9.724447 0.749341 17.592768 10.024654 -3.105369 -16.907001 -1.215726 3.437404 30.201723 -1.636209 2.389715 -26.861626 0.000000 0.000000 0.000000 -25.431630 4.181635 -3.162309 -35.245858 -22.789515 -0.518473 -0.291353 -73.157147 5.378483 0.000000 0.000000 0.000000 16.488401 4.587204 1.095521 47.863396 -4.659216 -9.004140 23.145327 48.795711 12.664910 0.000000 0.000000 0.000000 
-0.706071 0.838333 2.818702 -3.693414 -5.770069 -13.852636 3.265172 -0.379551 -8.120922 1.127334 -1.458808 50.342339 7.341886 9.974722 -28.390957 0.000000 0.000000 0.000000 -9.395638 0.963610 -28.723658 13.741320 -4.661468 55.617729 -13.101772 -32.160514 -6.879864 0.000000 0.000000 0.000000 -6.491928 0.123506 15.769883 11.610556 -3.657232 -16.315957 -4.516744 -2.219849 29.984796 -2.718304 2.276342 -23.931537 0.000000 0.000000 0.000000 -23.982536 3.556851 -1.540651 -38.449822 -26.883845 0.588731 -12.135414 -80.970808 18.044240 0.000000 0.000000 0.000000 15.550614 0.706796 -1.492636 47.491261 -13.919568 -12.295576 29.117504 47.353416 14.193857 0.000000 0.000000 0.000000 
-0.753175 0.840443 2.953028 -4.325387 -6.133291 -12.591159 7.378953 0.211115 -1.865951 1.056561 -1.535805 57.484779 6.670664 9.589897 -21.172694 0.000000 0.000000 0.000000 -7.356524 1.743086 -31.836860 8.225781 -1.257751 33.748946 -9.762388 -23.106602 -0.004755 0.000000 0.000000 0.000000 -3.546477 -0.184808 10.853943 12.765306 -3.996348 -16.292621 -7.608913 -3.987902 28.204059 -2.165810 1.522887 -19.472353 0.000000 0.000000 0.000000 -19.712412 5.869270 -2.385158 -45.466294 -24.904898 0.840562 -75.062657 -84.468935 80.493627 0.000000 0.000000 0.000000 11.842323 -2.465506 -2.786636 48.953576 -22.864647 -16.148221 37.275436 49.881265 18.565933 0.000000 0.000000 0.000000 
-0.800372 0.837694 3.089693 -4.115005 -7.186526 -12.756651 10.596371 0.442698 -7.045666 2.946295 -3.169544 74.010033 2.199398 4.682140 0.241794 0.000000 0.000000 0.000000 -6.159304 1.904423 -28.723338 7.855177 -0.982901 30.190741 -8.208091 -19.812234 2.169007 0.000000 0.000000 0.000000 -1.793708 -0.196969 5.538440 9.615059 -2.987668 -16.067858 -5.513375 -3.596046 27.482786 -4.688073 3.313130 -16.663497 0.000000 0.000000 0.000000 -22.372099 6.972885 -3.134773 -48.141921 -18.198658 -1.640857 -86.021150 -71.698061 78.735709 0.000000 0.000000 0.000000 8.414431 -3.389939 -2.622563 50.601953 -25.595968 -17.970540 44.956742 52.185393 23.478919 0.000000 0.000000 0.000000 
-0.845664 0.826813 3.221589 -5.232945 -7.857130 -16.413874 11.190419 0.770660 -15.613255 6.126437 -7.444601 83.977424 0.778401 2.995083 3.471031 0.000000 0.000000 0.000000 -2.749087 1.912621 -21.393261 9.853816 -1.664147 44.446924 -9.603362 -22.667813 -5.679887 0.000000 0.000000 0.000000 0.202420 -0.292212 7.458983 8.381063 -2.450192 -18.019392 -3.646064 -0.066293 27.574300 -1.980765 1.846193 -12.281660 0.000000 0.000000 0.000000 -23.379692 11.349465 -6.780173 -48.005828 -6.011373 -6.235234 -77.873113 -59.713675 57.867524 0.000000 0.000000 0.000000 11.512388 -3.258720 -2.648730 48.876657 -17.887774 -14.104000 38.272955 59.298741 24.298524 0.000000 0.000000 0.000000 
